<svg width="18" height="18" viewBox="0 0 18 18" fill="none"
    xmlns="http://www.w3.org/2000/svg">
    <path d="M17.5009 5.28998L12.7065 0.495606C12.3902 0.179262 11.9613 0 11.5149 0H6.48506C6.03866 0 5.60984 0.179262 5.2935 0.495606L0.495606 5.28998C0.179262 5.60633 0 6.03515 0 6.48155V11.5114C0 11.9578 0.179262 12.3866 0.495606 12.703L5.2935 17.5009C5.60984 17.8172 6.03866 17.9965 6.48506 17.9965H11.5149C11.9613 17.9965 12.3902 17.8172 12.7065 17.5009L17.5044 12.703C17.8207 12.3866 18 11.9578 18 11.5114V6.48506C17.9965 6.03515 17.8172 5.60633 17.5009 5.28998ZM16.3093 11.5114L11.5114 16.3093H6.48506L1.68717 11.5114V6.48506L6.48506 1.68717H11.5149L16.3093 6.48506V11.5114ZM12.5765 11.7821L11.7821 12.5765C11.6169 12.7417 11.3497 12.7417 11.1845 12.5765L8.99824 10.3902L6.81195 12.5765C6.64675 12.7417 6.37961 12.7417 6.21441 12.5765L5.42004 11.7821C5.25483 11.6169 5.25483 11.3497 5.42004 11.1845L7.60633 8.99824L5.42004 6.81195C5.25483 6.64675 5.25483 6.37961 5.42004 6.21441L6.21441 5.42004C6.37961 5.25483 6.64675 5.25483 6.81195 5.42004L8.99824 7.60633L11.1845 5.42004C11.3497 5.25483 11.6169 5.25483 11.7821 5.42004L12.5765 6.21441C12.7417 6.37961 12.7417 6.64675 12.5765 6.81195L10.3902 8.99824L12.5765 11.1845C12.7417 11.3497 12.7417 11.6169 12.5765 11.7821Z" fill="#FF1C1C"/>
</svg>
