<svg width="82" height="15" viewBox="0 0 82 15" fill="none"
    xmlns="http://www.w3.org/2000/svg">
    <path d="M8.19998 14.56C10.2 14.56 11.86 13.78 13.1 12.52C13.24 12.38 13.22 12.24 13.1 12.12L11.7 10.62C11.58 10.48 11.42 10.48 11.28 10.6C10.44 11.3 9.43998 11.76 8.19998 11.76C5.73998 11.76 3.87998 9.9 3.87998 7.36C3.87998 4.82 5.73998 2.94 8.19998 2.94C9.43998 2.94 10.44 3.4 11.28 4.1C11.42 4.22 11.58 4.22 11.7 4.08L13.1 2.58C13.22 2.44 13.24 2.3 13.1 2.16C11.86 0.92 10.2 0.140001 8.19998 0.140001C4.19998 0.140001 0.97998 3.26 0.97998 7.36C0.97998 11.46 4.19998 14.56 8.19998 14.56Z" fill="#8C8CA1"/>
    <path d="M19.2965 14.54C22.2365 14.54 24.4165 12.3 24.4165 9.4C24.4165 6.5 22.2365 4.26 19.2965 4.26C16.3365 4.26 14.1565 6.5 14.1565 9.4C14.1565 12.3 16.3365 14.54 19.2965 14.54ZM19.2965 12C17.8965 12 16.8165 11 16.8165 9.4C16.8165 7.8 17.8965 6.8 19.2965 6.8C20.6765 6.8 21.7565 7.8 21.7565 9.4C21.7565 11 20.6765 12 19.2965 12Z" fill="#8C8CA1"/>
    <path d="M26.5776 14.3H28.7376C28.9176 14.3 29.0376 14.18 29.0376 14V9.1C29.0376 7.7 29.7576 6.76 31.1176 6.76C31.3976 6.76 31.6176 6.8 31.8376 6.86C32.0976 6.92 32.2376 6.86 32.2376 6.62V4.9C32.2376 4.72 32.1976 4.6 32.0576 4.5C31.8976 4.38 31.6176 4.26 31.1576 4.26C29.9976 4.26 29.3776 5.04 29.0376 6.08L28.9576 4.82C28.9576 4.58 28.8376 4.5 28.6576 4.5H26.5776C26.3976 4.5 26.2776 4.62 26.2776 4.8V14C26.2776 14.18 26.3976 14.3 26.5776 14.3Z" fill="#8C8CA1"/>
    <path d="M34.312 14.3H36.492C36.672 14.3 36.792 14.18 36.792 14V11.92L38.012 10.54L40.652 14.12C40.752 14.26 40.852 14.3 41.012 14.3H43.332C43.572 14.3 43.652 14.14 43.512 13.94L39.672 8.64L42.992 4.86C43.152 4.66 43.092 4.5 42.832 4.5H40.372C40.232 4.5 40.112 4.54 40.012 4.66L36.792 8.46V0.3C36.792 0.12 36.672 0 36.492 0H34.312C34.132 0 34.012 0.12 34.012 0.3V14C34.012 14.18 34.132 14.3 34.312 14.3Z" fill="#8C8CA1"/>
    <path d="M52.2425 14.56C56.2225 14.56 59.4425 11.4 59.4425 7.36C59.4425 3.3 56.2225 0.140001 52.2425 0.140001C48.2625 0.140001 45.0425 3.3 45.0425 7.36C45.0425 11.4 48.2625 14.56 52.2425 14.56ZM52.2425 11.76C49.8025 11.76 47.9425 9.86 47.9425 7.36C47.9425 4.84 49.8025 2.94 52.2425 2.94C54.7025 2.94 56.5425 4.84 56.5425 7.36C56.5425 9.86 54.7025 11.76 52.2425 11.76Z" fill="#8C8CA1"/>
    <path d="M64.2939 14.3H66.5139C66.6739 14.3 66.8139 14.22 66.8739 14.06L69.0539 7.7L71.2539 14.06C71.3139 14.22 71.4539 14.3 71.6139 14.3H73.8339C73.9939 14.3 74.1339 14.22 74.1939 14.06L77.2539 4.84C77.3339 4.62 77.2339 4.5 77.0139 4.5H74.9339C74.7739 4.5 74.6139 4.58 74.5539 4.74L72.5939 11.1L70.4739 4.74C70.4139 4.58 70.2739 4.5 70.1139 4.5H68.0139C67.8539 4.5 67.7139 4.58 67.6539 4.74L65.5139 11.1L63.5539 4.74C63.4939 4.58 63.3539 4.5 63.1939 4.5H61.0939C60.8739 4.5 60.7739 4.62 60.8539 4.84L63.9339 14.06C63.9939 14.22 64.1339 14.3 64.2939 14.3Z" fill="#8C8CA1"/>
    <path d="M79.3511 14.3H81.5311C81.7111 14.3 81.8311 14.18 81.8311 14V0.3C81.8311 0.12 81.7111 0 81.5311 0H79.3511C79.1711 0 79.0511 0.12 79.0511 0.3V14C79.0511 14.18 79.1711 14.3 79.3511 14.3Z" fill="#8C8CA1"/>
</svg>
