<svg width="24" height="24" viewBox="0 0 24 24" fill="none"
    xmlns="http://www.w3.org/2000/svg">
    <path d="M5.7 16.6H4.8C4.32261 16.6 3.86477 16.4104 3.52721 16.0728C3.18964 15.7352 3 15.2774 3 14.8V5.8C3 5.32261 3.18964 4.86477 3.52721 4.52721C3.86477 4.18964 4.32261 4 4.8 4H19.2C19.6774 4 20.1352 4.18964 20.4728 4.52721C20.8104 4.86477 21 5.32261 21 5.8V14.8C21 15.2774 20.8104 15.7352 20.4728 16.0728C20.1352 16.4104 19.6774 16.6 19.2 16.6H18.3" stroke="#811434" stroke-width="2" stroke-linecap="round" stroke-linejoin="round"/>
    <path d="M12 14.8L16.5 20.2H7.5L12 14.8Z" stroke="#811434" stroke-width="2" stroke-linecap="round" stroke-linejoin="round"/>
</svg>
