<svg width="24" height="24" viewBox="0 0 24 24" fill="none"
    xmlns="http://www.w3.org/2000/svg">
    <circle cx="18.5" cy="18.5" r="5.5" fill="#ECF1F4"/>
    <path d="M17.9297 7.58562L16.7747 4.1275C16.5513 3.45375 15.9222 3 15.2106 3H4.38937C3.67781 3 3.04875 3.45375 2.82531 4.1275L1.08594 9.34563C1.03094 9.51406 1 9.68938 1 9.86813V18.95C1 19.8609 1.73906 20.6 2.65 20.6H16.4C20.0438 20.6 23 17.6438 23 14C23 10.8822 20.8344 8.27656 17.9297 7.58562ZM10.625 4.65H15.2106L16.1319 7.41375C14.42 7.4825 12.8766 8.19406 11.7422 9.325H10.625V4.65ZM4.38937 4.65H8.975V9.325H2.83219L4.38937 4.65ZM2.65 18.95V10.975H10.5391C10.0716 11.8825 9.8 12.9103 9.8 14C9.8 15.9731 10.6697 17.74 12.0447 18.95H2.65ZM16.4 18.95C13.6706 18.95 11.45 16.7294 11.45 14C11.45 11.2706 13.6706 9.05 16.4 9.05C19.1294 9.05 21.35 11.2706 21.35 14C21.35 16.7294 19.1294 18.95 16.4 18.95ZM18.6206 11.8791C18.5141 11.7725 18.3422 11.7725 18.2356 11.8791L15.8328 14.2613L14.7913 13.2094C14.6847 13.1028 14.5128 13.1028 14.4062 13.2094L13.7634 13.8488C13.6569 13.9553 13.6569 14.1272 13.7634 14.2337L15.6334 16.1209C15.74 16.2275 15.9119 16.2275 16.0184 16.1209L19.2566 12.9069C19.3631 12.8003 19.3631 12.6284 19.2566 12.5219L18.6206 11.8791Z" fill="#00CF3A"/>
</svg>
