<svg width="135" height="20" viewBox="0 0 135 20" fill="none" xmlns="http://www.w3.org/2000/svg">
<path fill-rule="evenodd" clip-rule="evenodd" d="M78.9287 4.8341C80.8455 5.86492 82.4457 7.35052 83.6483 9.21005C83.7056 9.29763 83.7628 9.32458 83.8201 9.32458C83.8774 9.32458 83.9346 9.29763 83.9919 9.21005C85.1945 7.35052 86.7947 5.86492 88.7115 4.8341C90.3689 3.91781 91.457 2.37494 91.7736 0.629948C91.7736 0.488463 91.6288 0.373926 91.4873 0.431195C90.3992 0.973556 89.4559 1.22958 88.5666 1.22958C87.5088 1.22958 86.7374 0.85902 86.0502 0.542362C85.4202 0.25939 84.8779 0 84.0492 0H83.591C82.7623 0 82.2166 0.25939 81.59 0.542362C80.9028 0.85902 80.1314 1.22958 79.0702 1.22958C78.1842 1.22958 77.241 0.973556 76.1529 0.431195C76.0114 0.373926 75.8666 0.488463 75.8666 0.629948C76.1832 2.37494 77.268 3.91781 78.9287 4.8341Z" fill="#DD4553"/>
<path fill-rule="evenodd" clip-rule="evenodd" d="M83.8132 18.2853C78.7804 18.2853 74.6874 14.1924 74.6874 9.1292C74.6874 7.92994 74.9165 6.75763 75.3746 5.69649C75.7755 6.35676 76.3751 6.95639 77.2341 7.49875C77.3756 7.61328 77.5205 7.70087 77.6923 7.78509L77.7192 7.81541C77.3217 8.33082 77.0927 8.98772 77.0927 9.70188C77.0927 11.5041 78.5513 12.9628 80.3232 12.9628C80.8959 12.9628 81.4383 12.8213 81.8964 12.5619C83.2136 15.2535 83.5572 17.8272 83.8132 17.8272C84.0692 17.8272 84.4129 15.2535 85.73 12.5619C86.1882 12.8213 86.7305 12.9628 87.3032 12.9628C89.0751 12.9628 90.5338 11.5041 90.5338 9.70188C90.5338 8.98772 90.3081 8.33082 89.9072 7.81541L89.9342 7.78509C90.106 7.70087 90.2474 7.61328 90.3923 7.49875C91.2783 6.95639 91.8813 6.32644 92.2788 5.66954C92.71 6.72731 92.966 7.89962 92.966 9.1292C92.966 14.1924 88.8764 18.2853 83.8132 18.2853ZM79.0937 8.78559C79.8954 9.47281 80.5254 10.2476 81.0677 11.0763C80.8386 11.1909 80.6096 11.2481 80.3232 11.2481C79.4945 11.2481 78.8073 10.5609 78.8073 9.70188C78.8073 9.35827 78.8915 9.04498 79.0937 8.78559ZM88.5328 8.78559C88.7315 9.04498 88.8191 9.35827 88.8191 9.70188C88.8191 10.5609 88.1319 11.2481 87.3032 11.2481C87.0169 11.2481 86.7878 11.1909 86.5587 11.0763C87.1045 10.2476 87.731 9.47281 88.5328 8.78559ZM93.0536 3.43945C93.1951 2.43558 93.1951 1.32054 93.1681 0.0336914C93.1378 0.94998 92.939 1.86627 92.5651 2.69497C92.3091 3.26765 91.9655 3.81001 91.5646 4.29511C91.4501 4.43996 91.3355 4.58145 91.1941 4.7263C90.7056 5.29898 90.079 5.78408 89.3918 6.15463L89.3345 6.18495C86.4745 7.70087 84.9013 10.1028 84.0423 12.2183C83.985 12.3328 83.9008 12.3901 83.8132 12.3901C83.729 12.3901 83.6414 12.3328 83.5841 12.2183C82.7251 10.1028 81.1519 7.70087 78.2919 6.18495L78.2346 6.15463C77.5474 5.78408 76.9208 5.29898 76.4324 4.7263C76.3178 4.58145 76.1764 4.46691 76.0618 4.32542C75.6609 3.84033 75.3477 3.2946 75.0883 2.72192C74.7177 1.89322 74.4886 0.97693 74.4583 0.0336914C74.4314 1.32054 74.4314 2.4659 74.5729 3.49672C73.5454 5.12718 72.9727 7.07092 72.9727 9.1292C72.9727 15.139 77.8338 20 83.8132 20C89.8196 20 94.684 15.139 94.684 9.1292C94.684 7.0406 94.1114 5.09686 93.0536 3.43945Z" fill="#FBE1D0"/>
<path fill-rule="evenodd" clip-rule="evenodd" d="M0 10.0726C0 5.1374 3.69547 1.2937 8.68116 1.2937C11.0662 1.2937 12.9864 2.16957 14.4955 3.55747C14.664 3.72591 14.7145 3.89771 14.5427 4.11668L13.5692 5.16098C13.4243 5.32941 13.2559 5.32941 13.0605 5.16098C11.868 4.14026 10.4565 3.50694 8.70811 3.50694C5.0598 3.50694 2.31093 6.30297 2.31093 10.0726C2.31093 13.8421 5.0598 16.6146 8.70811 16.6146C10.4565 16.6146 11.868 15.9846 13.0605 14.9605C13.2559 14.7652 13.4243 14.7921 13.5692 14.937L14.5427 16.0082C14.7381 16.2036 14.664 16.372 14.4955 16.5438C12.9864 17.952 11.0662 18.8278 8.68116 18.8278C3.69547 18.8278 0 15.0111 0 10.0726Z" fill="#FBE1D0"/>
<path fill-rule="evenodd" clip-rule="evenodd" d="M34.1753 10.0726C34.1753 6.32655 31.4028 3.50694 27.7545 3.50694C24.1096 3.50694 21.3371 6.32655 21.3371 10.0726C21.3371 13.795 24.1096 16.6146 27.7545 16.6146C31.4028 16.6146 34.1753 13.795 34.1753 10.0726ZM19.0262 10.0726C19.0262 5.1374 22.8665 1.2937 27.7545 1.2937C32.6189 1.2937 36.4626 5.1374 36.4626 10.0726C36.4626 14.9841 32.6189 18.8278 27.7545 18.8278C22.8665 18.8278 19.0262 14.9841 19.0262 10.0726Z" fill="#FBE1D0"/>
<path fill-rule="evenodd" clip-rule="evenodd" d="M44.1808 10.1702H46.8825C48.9003 10.1702 50.5274 9.31789 50.5274 6.83852C50.5274 4.35915 48.9003 3.50687 46.8825 3.50687H44.1808V10.1702ZM52.5958 18.5111H50.9182C50.7228 18.5111 50.578 18.4403 50.4803 18.2685L46.5153 12.188H44.1808V18.1709C44.1808 18.3898 44.0595 18.5111 43.8405 18.5111H42.2606C42.0416 18.5111 41.8968 18.3898 41.8968 18.1709V1.82925C41.8968 1.61029 42.0416 1.48901 42.2606 1.48901H47.0273C50.7969 1.48901 52.7407 3.70225 52.7407 6.83852C52.7407 9.44253 51.4033 11.4099 48.7791 11.996L52.8417 18.0732C53.0102 18.3427 52.8889 18.5111 52.5958 18.5111Z" fill="#FBE1D0"/>
<path fill-rule="evenodd" clip-rule="evenodd" d="M58.4838 18.1709V1.82925C58.4838 1.61029 58.6286 1.48901 58.8476 1.48901H60.4309C60.6498 1.48901 60.7677 1.61029 60.7677 1.82925V10.6317L67.4344 1.6844C67.5557 1.53618 67.7005 1.48901 67.8724 1.48901H69.8161C70.1328 1.48901 70.2069 1.6844 70.0115 1.92695L64.224 9.31789L70.692 18.0732C70.8638 18.3191 70.7661 18.5111 70.473 18.5111H68.6505C68.4551 18.5111 68.3339 18.4639 68.2126 18.2921L62.8631 11.0696L60.7677 13.7444V18.1709C60.7677 18.3898 60.6498 18.5111 60.4309 18.5111H58.8476C58.6286 18.5111 58.4838 18.3898 58.4838 18.1709Z" fill="#FBE1D0"/>
<path fill-rule="evenodd" clip-rule="evenodd" d="M101.823 18.2214L96.8101 1.90336C96.7394 1.65745 96.8371 1.48901 97.1032 1.48901H98.7067C98.9021 1.48901 99.0739 1.56313 99.1211 1.78209L103.184 15.4489L107.587 1.78209C107.657 1.56313 107.779 1.48901 107.998 1.48901H109.652C109.847 1.48901 109.968 1.56313 110.042 1.78209L114.442 15.4489L118.505 1.78209C118.579 1.56313 118.724 1.48901 118.919 1.48901H120.522C120.792 1.48901 120.886 1.65745 120.816 1.90336L115.83 18.2214C115.756 18.4403 115.587 18.5111 115.392 18.5111H113.64C113.421 18.5111 113.276 18.4403 113.202 18.2214L108.826 4.33557L104.423 18.2214C104.349 18.4403 104.204 18.5111 104.009 18.5111H102.234C102.038 18.5111 101.87 18.4403 101.823 18.2214Z" fill="#FBE1D0"/>
<path fill-rule="evenodd" clip-rule="evenodd" d="M134.748 16.8335V18.1473C134.748 18.3662 134.603 18.5111 134.381 18.5111H126.552C126.333 18.5111 126.188 18.3898 126.188 18.1709V1.82925C126.188 1.61029 126.333 1.48901 126.552 1.48901H128.132C128.351 1.48901 128.472 1.61029 128.472 1.82925V16.4697H134.381C134.603 16.4697 134.748 16.6145 134.748 16.8335Z" fill="#FBE1D0"/>
</svg>
