<svg width="24" height="24" viewBox="0 0 24 24" fill="none"
    xmlns="http://www.w3.org/2000/svg">
    <circle cx="18.5" cy="18.5" r="5.5" fill="#ECF1F4"/>
    <path d="M22.5417 9.11112H19.7572L14.8373 3.32302C14.5095 2.9373 13.931 2.89039 13.5452 3.21825C13.1595 3.54611 13.1126 4.12465 13.4405 4.51037L17.3511 9.11112H6.64892L10.5596 4.51033C10.8874 4.12461 10.8405 3.54608 10.4548 3.21822C10.0691 2.89035 9.49055 2.9373 9.16269 3.32298L4.24275 9.11112H1.45833C1.20522 9.11112 1 9.31634 1 9.56945V10.4861C1 10.7392 1.20522 10.9445 1.45833 10.9445H2.17131L3.22486 18.53C3.35072 19.4364 4.12568 20.1111 5.04074 20.1111H18.9593C19.8743 20.1111 20.6493 19.4364 20.7752 18.53L21.8287 10.9445H22.5417C22.7948 10.9445 23 10.7392 23 10.4861V9.56945C23 9.31634 22.7948 9.11112 22.5417 9.11112ZM18.9593 18.2778H5.04074L4.02221 10.9445H19.9778L18.9593 18.2778ZM12.9167 13.0833V16.1389C12.9167 16.6452 12.5063 17.0556 12 17.0556C11.4937 17.0556 11.0833 16.6452 11.0833 16.1389V13.0833C11.0833 12.5771 11.4937 12.1667 12 12.1667C12.5063 12.1667 12.9167 12.5771 12.9167 13.0833ZM17.1944 13.0833V16.1389C17.1944 16.6452 16.784 17.0556 16.2778 17.0556C15.7715 17.0556 15.3611 16.6452 15.3611 16.1389V13.0833C15.3611 12.5771 15.7715 12.1667 16.2778 12.1667C16.784 12.1667 17.1944 12.5771 17.1944 13.0833ZM8.63889 13.0833V16.1389C8.63889 16.6452 8.22849 17.0556 7.72222 17.0556C7.21595 17.0556 6.80556 16.6452 6.80556 16.1389V13.0833C6.80556 12.5771 7.21595 12.1667 7.72222 12.1667C8.22849 12.1667 8.63889 12.5771 8.63889 13.0833Z" fill="#FFAA2C"/>
</svg>
