<svg width="18" height="19" viewBox="0 0 18 19" fill="none"
    xmlns="http://www.w3.org/2000/svg">
    <path d="M16.3583 8.57466L17.5506 7.88636C17.9035 7.68263 18.0747 7.26697 17.9691 6.87336C17.5421 5.28084 16.7019 3.85737 15.5705 2.7247C15.283 2.43683 14.8376 2.37849 14.4852 2.582L13.2951 3.26939C12.9084 2.99271 12.4959 2.7542 12.0632 2.55721V1.18104C12.0632 0.982824 11.9977 0.79017 11.8769 0.633031C11.756 0.475893 11.5867 0.363074 11.3951 0.312118C9.83144 -0.103771 8.17058 -0.104295 6.60494 0.31208C6.21107 0.416848 5.9368 0.773426 5.9368 1.181V2.55717C5.50411 2.75416 5.09155 2.99268 4.70493 3.26936L3.51478 2.58196C3.16243 2.37845 2.71704 2.43679 2.42947 2.72466C1.29807 3.85734 0.457905 5.28076 0.0308956 6.87332C-0.0746585 7.26693 0.0964598 7.6826 0.449405 7.88633L1.64173 8.57466C1.59605 9.04783 1.59605 9.52431 1.64173 9.99749L0.449405 10.6858C0.0964598 10.8895 -0.0746585 11.3052 0.0308956 11.6988C0.457905 13.2913 1.29807 14.7148 2.42947 15.8474C2.71704 16.1353 3.16243 16.1937 3.51478 15.9901L4.70493 15.3028C5.09154 15.5794 5.5041 15.8179 5.9368 16.0149V17.3911C5.93682 17.5893 6.00233 17.7819 6.12315 17.9391C6.24397 18.0962 6.41332 18.209 6.60487 18.26C8.16856 18.6759 9.82942 18.6764 11.3951 18.26C11.7889 18.1553 12.0632 17.7987 12.0632 17.3911V16.0149C12.4959 15.8179 12.9084 15.5794 13.2951 15.3028L14.4852 15.9902C14.8376 16.1937 15.283 16.1354 15.5705 15.8475C16.7019 14.7148 17.5421 13.2913 17.9691 11.6988C18.0747 11.3052 17.9035 10.8895 17.5506 10.6858L16.3583 9.99752C16.404 9.52386 16.404 9.04832 16.3583 8.57466ZM14.3858 10.9343L16.0265 11.8812C15.7314 12.6783 15.3028 13.4194 14.7591 14.0728L13.118 13.1251C11.9204 14.1509 11.7453 14.2513 10.2659 14.7737V16.6683C9.42804 16.8114 8.57196 16.8114 7.73406 16.6683V14.7737C6.25488 14.2514 6.0792 14.1506 4.88204 13.1251L3.24092 14.0728C2.69722 13.4194 2.26863 12.6783 1.97348 11.8812L3.61423 10.9343C3.32854 9.38794 3.32839 9.18499 3.61423 7.63785L1.97348 6.69093C2.26741 5.89604 2.69652 5.1539 3.24092 4.49938L4.88204 5.44705C6.07964 4.4212 6.25473 4.32082 7.73406 3.79844V1.90385C8.57196 1.76082 9.42804 1.76082 10.2659 1.90385V3.79847C11.7451 4.32082 11.9208 4.42161 13.118 5.44709L14.7591 4.49942C15.3028 5.15278 15.7314 5.89386 16.0265 6.69097L14.3858 7.63789C14.6715 9.18432 14.6716 9.38719 14.3858 10.9343ZM9 5.69148C7.01791 5.69148 5.40539 7.304 5.40539 9.28609C5.40539 11.2682 7.01791 12.8807 9 12.8807C10.9821 12.8807 12.5946 11.2682 12.5946 9.28609C12.5946 7.304 10.9821 5.69148 9 5.69148ZM9 11.0834C8.00894 11.0834 7.2027 10.2772 7.2027 9.28609C7.2027 8.29506 8.00894 7.48879 9 7.48879C9.99106 7.48879 10.7973 8.29506 10.7973 9.28609C10.7973 10.2772 9.99106 11.0834 9 11.0834Z" fill="#485572"/>
</svg>
