<svg width="24" height="24" viewBox="0 0 24 24" fill="none"
    xmlns="http://www.w3.org/2000/svg">
    <circle cx="18.5" cy="18.5" r="5.5" fill="#ECF1F4"/>
    <path d="M22.45 15.65H21.9V11.6591C21.9 11.0059 21.6353 10.37 21.1747 9.90938L18.2906 7.02531C17.83 6.56469 17.1906 6.3 16.5409 6.3H15.3V4.925C15.3 3.86281 14.4372 3 13.375 3H2.925C1.86281 3 1 3.86281 1 4.925V15.375C1 16.4372 1.86281 17.3 2.925 17.3H3.2C3.2 19.1219 4.67813 20.6 6.5 20.6C8.32188 20.6 9.8 19.1219 9.8 17.3H14.2C14.2 19.1219 15.6781 20.6 17.5 20.6C19.3219 20.6 20.8 19.1219 20.8 17.3H22.45C22.7525 17.3 23 17.0525 23 16.75V16.2C23 15.8975 22.7525 15.65 22.45 15.65ZM6.5 18.95C5.58906 18.95 4.85 18.2109 4.85 17.3C4.85 16.3891 5.58906 15.65 6.5 15.65C7.41094 15.65 8.15 16.3891 8.15 17.3C8.15 18.2109 7.41094 18.95 6.5 18.95ZM13.65 15.65H9.34281C8.77219 14.6669 7.72031 14 6.5 14C5.27969 14 4.22781 14.6669 3.65719 15.65H2.925C2.77375 15.65 2.65 15.5262 2.65 15.375V4.925C2.65 4.77375 2.77375 4.65 2.925 4.65H13.375C13.5262 4.65 13.65 4.77375 13.65 4.925V15.65ZM15.3 7.95H16.5409C16.7575 7.95 16.9706 8.03938 17.1253 8.19063L19.6347 10.7H15.3V7.95ZM17.5 18.95C16.5891 18.95 15.85 18.2109 15.85 17.3C15.85 16.3891 16.5891 15.65 17.5 15.65C18.4109 15.65 19.15 16.3891 19.15 17.3C19.15 18.2109 18.4109 18.95 17.5 18.95ZM20.25 15.4816C19.6588 14.5913 18.6481 14 17.5 14C16.6509 14 15.8844 14.33 15.3 14.8559V12.35H20.25V15.4816Z" fill="#2C67FF"/>
</svg>
