<svg width="24" height="24" viewBox="0 0 24 24" fill="none"
    xmlns="http://www.w3.org/2000/svg">
    <path d="M7.67656 12.6766C7.87188 12.8719 8.18844 12.8719 8.38375 12.6766L10 11.0606L12.6466 13.7072C12.8419 13.9025 13.1584 13.9025 13.3538 13.7072L16.7981 10.2625L17.7197 11.1844C18.1922 11.6569 19 11.3222 19 10.6541V7.5C19 7.22375 18.7762 7 18.5 7H15.3459C14.6778 7 14.3431 7.80781 14.8156 8.28031L15.7375 9.20188L13 11.9394L10.3534 9.29281C10.1581 9.0975 9.84156 9.0975 9.64625 9.29281L7.32312 11.6159C7.12781 11.8113 7.12781 12.1278 7.32312 12.3231L7.67656 12.6766ZM19.5 16.5H5.5V6.5C5.5 6.22375 5.27625 6 5 6H4.5C4.22375 6 4 6.22375 4 6.5V17C4 17.5522 4.44781 18 5 18H19.5C19.7762 18 20 17.7762 20 17.5V17C20 16.7238 19.7762 16.5 19.5 16.5Z" fill="#2FCA72"/>
</svg>
